<svg width="21" height="20" viewBox="0 0 21 20" fill="none" xmlns="http://www.w3.org/2000/svg">
<path d="M20.0059 14.19C20.0059 17.83 17.8359 20 14.1959 20H13.0059C12.4559 20 12.0059 19.55 12.0059 19V13.23C12.0059 12.96 12.2259 12.73 12.4959 12.73L14.2559 12.7C14.3959 12.69 14.5159 12.59 14.5459 12.45L14.8959 10.54C14.9027 10.4967 14.9 10.4525 14.8881 10.4103C14.8761 10.3681 14.8552 10.3291 14.8266 10.2958C14.7981 10.2625 14.7627 10.2358 14.7229 10.2176C14.6831 10.1993 14.6397 10.1899 14.5959 10.19L12.4659 10.22C12.1859 10.22 11.9659 10 11.9559 9.73L11.9159 7.28C11.9159 7.12 12.0459 6.98 12.2159 6.98L14.6159 6.94C14.7859 6.94 14.9159 6.81 14.9159 6.64L14.8759 4.24C14.8759 4.07 14.7459 3.94 14.5759 3.94L11.8759 3.98C11.4818 3.98599 11.0927 4.06969 10.731 4.22632C10.3692 4.38295 10.042 4.60942 9.76793 4.89276C9.49388 5.1761 9.27844 5.51073 9.13395 5.87748C8.98946 6.24422 8.91877 6.63588 8.92592 7.03L8.97592 9.78C8.98592 10.06 8.76592 10.28 8.48592 10.29L7.28592 10.31C7.11592 10.31 6.98592 10.44 6.98592 10.61L7.01592 12.51C7.01592 12.68 7.14592 12.81 7.31592 12.81L8.51592 12.79C8.79592 12.79 9.01592 13.01 9.02592 13.28L9.11592 18.98C9.12592 19.54 8.67592 20 8.11592 20H5.81592C2.17592 20 0.00592041 17.83 0.00592041 14.18V5.81C0.00592041 2.17 2.17592 0 5.81592 0H14.1959C17.8359 0 20.0059 2.17 20.0059 5.81V14.19Z" fill="#7EC5E6"/>
</svg>
