<svg width="21" height="20" viewBox="0 0 21 20" fill="none" xmlns="http://www.w3.org/2000/svg">
<path fill-rule="evenodd" clip-rule="evenodd" d="M5.33925 0C2.39374 0 0.00592041 2.38781 0.00592041 5.33333V14.6667C0.00592041 17.6122 2.39373 20 5.33925 20H14.6726C17.6181 20 20.0059 17.6122 20.0059 14.6667V5.33333C20.0059 2.38781 17.6181 0 14.6726 0H5.33925ZM13.3393 7.33333C13.7074 7.33333 14.0059 7.03486 14.0059 6.66667C14.0059 6.29848 13.7074 6 13.3393 6C12.9711 6 12.6726 6.29848 12.6726 6.66667C12.6726 7.03486 12.9711 7.33333 13.3393 7.33333ZM3.33925 7.33333C3.33925 5.12419 5.13012 3.33333 7.33925 3.33333H12.6726C14.8817 3.33333 16.6726 5.12419 16.6726 7.33333V12.6667C16.6726 14.8758 14.8817 16.6667 12.6726 16.6667H7.33925C5.13012 16.6667 3.33925 14.8758 3.33925 12.6667V7.33333ZM7.33925 4.66667C5.86649 4.66667 4.67259 5.86057 4.67259 7.33333V12.6667C4.67259 14.1394 5.86649 15.3333 7.33925 15.3333H12.6726C14.1453 15.3333 15.3393 14.1394 15.3393 12.6667V7.33333C15.3393 5.86057 14.1453 4.66667 12.6726 4.66667H7.33925ZM11.3393 10C11.3393 10.7364 10.7423 11.3333 10.0059 11.3333C9.26954 11.3333 8.67259 10.7364 8.67259 10C8.67259 9.26362 9.26954 8.66667 10.0059 8.66667C10.7423 8.66667 11.3393 9.26362 11.3393 10ZM12.6726 10C12.6726 11.4728 11.4787 12.6667 10.0059 12.6667C8.53316 12.6667 7.33925 11.4728 7.33925 10C7.33925 8.52724 8.53316 7.33333 10.0059 7.33333C11.4787 7.33333 12.6726 8.52724 12.6726 10Z" fill="#7EC5E6"/>
</svg>
