<svg width="20" height="20" viewBox="0 0 20 20" fill="none" xmlns="http://www.w3.org/2000/svg">
<path fill-rule="evenodd" clip-rule="evenodd" d="M0 4C0 1.79086 1.79086 0 4 0H16C18.2091 0 20 1.79086 20 4V16C20 18.2091 18.2091 20 16 20H4C1.79086 20 0 18.2091 0 16V4ZM4.3553 5.64523C4.55061 5.55212 4.76922 5.5 5 5.5H15C15.2308 5.5 15.4494 5.55212 15.6447 5.64523L15.6799 5.61589L15.7511 5.7013C16.1988 5.96081 16.5 6.44524 16.5 7V13C16.5 13.8284 15.8284 14.5 15 14.5H5C4.17157 14.5 3.5 13.8284 3.5 13V7C3.5 6.44524 3.80116 5.96081 4.24892 5.7013L4.32009 5.61589L4.3553 5.64523ZM4.5 7.06752V13C4.5 13.2761 4.72386 13.5 5 13.5H15C15.2761 13.5 15.5 13.2761 15.5 13V7.06752L10.9603 10.8506C10.404 11.3142 9.59599 11.3142 9.03972 10.8506L4.5 7.06752ZM14.619 6.5L10.3201 10.0824C10.1347 10.2369 9.86533 10.2369 9.67991 10.0824L5.38102 6.5H14.619Z" fill="#7FC6E7"/>
</svg>
