<svg width="20" height="20" viewBox="0 0 20 20" fill="none" xmlns="http://www.w3.org/2000/svg">
<path d="M9.99763 0.00211033C12.551 0.00211033 15.1064 1.28755e-07 17.6598 0.00211033C19.1074 0.00422054 19.9979 0.890507 19.9979 2.336C20 7.44481 20 12.5536 19.9979 17.6603C19.9979 19.1079 19.1095 19.9984 17.664 19.9984C12.5552 20.0005 7.44639 20.0005 2.33969 19.9984C0.889979 19.9984 0.00369286 19.11 0.00158265 17.6624C-0.000527551 12.5536 -0.000527551 7.44481 0.00158265 2.33811C0.00158265 0.886286 0.887869 0 2.33336 0C4.88882 0.00211021 7.44428 0.00211033 9.99763 0.00211033ZM9.88368 14.0751C10.943 14.8516 12.0445 15.6683 13.1545 16.4723C13.7327 16.8922 14.2687 16.677 14.4164 15.9721C15.1613 12.4312 15.8999 8.88819 16.6427 5.34726C16.706 5.0455 16.7018 4.76484 16.4485 4.54327C16.1826 4.31326 15.8978 4.35335 15.5918 4.47364C11.2405 6.17446 6.88718 7.86896 2.53383 9.56345C2.27005 9.66685 2.0527 9.79346 2.07591 10.1205C2.09702 10.4265 2.31859 10.5236 2.57392 10.5975C3.54462 10.8802 4.5132 11.1778 5.48601 11.4521C5.72868 11.5196 5.84685 11.6462 5.92071 11.8826C6.27944 13.0622 6.65295 14.2376 7.02646 15.4151C7.23326 16.0671 7.68273 16.1705 8.17441 15.6936C8.72306 15.166 9.28227 14.6448 9.88368 14.0751Z" fill="#7FC6E7"/>
<path d="M7.38519 14.6765C7.06233 13.634 6.73947 12.5937 6.41872 11.5513C6.33431 11.2769 6.51157 11.1461 6.71204 11.0237C8.25671 10.0678 9.79927 9.11187 11.3418 8.15384C12.1184 7.67271 12.8928 7.18525 13.6778 6.71256C13.7876 6.64715 13.9437 6.6577 14.0767 6.63238C14.0112 6.75477 13.9754 6.90881 13.8783 6.99744C11.9517 8.71304 10.0145 10.4139 8.09422 12.1358C7.91907 12.2941 7.78191 12.5536 7.7376 12.7878C7.62364 13.4104 7.573 14.0434 7.49703 14.6723C7.46116 14.6744 7.42318 14.6765 7.38519 14.6765Z" fill="#7FC6E7"/>
</svg>
