<svg width="21" height="20" viewBox="0 0 21 20" fill="none" xmlns="http://www.w3.org/2000/svg">
<path d="M10.027 19.9964C8.53918 19.9964 7.04806 20.0063 5.56025 19.9931C4.86747 19.9865 4.1747 19.9733 3.48852 19.9041C1.78628 19.7292 0.453509 18.5053 0.140111 16.813C0.0378444 16.2654 0.011453 15.7012 0.0081541 15.1404C-0.00174267 11.7293 -0.0050416 8.32154 0.0081541 4.91045C0.011453 4.24407 0.02135 3.57109 0.192894 2.9146C0.601961 1.36411 1.91163 0.235874 3.50831 0.0775252C3.96027 0.0313402 4.41882 0.00494839 4.87407 0.00494839C8.27526 -0.00164946 11.6765 -0.00164946 15.0776 0.00494839C15.7803 0.00494839 16.483 0.0148456 17.1692 0.209482C18.69 0.638342 19.8017 1.97441 19.9304 3.55129C19.9733 4.07582 19.9996 4.60365 19.9996 5.12818C20.0062 8.31824 20.0095 11.5083 19.9996 14.6984C19.9963 15.3647 19.9897 16.041 19.8908 16.7008C19.617 18.5152 18.1094 19.8744 16.2752 19.9272C14.2562 19.9865 12.234 19.9766 10.2117 19.9964C10.1491 19.9964 10.0897 19.9964 10.027 19.9964ZM10.0138 3.68985C10.0138 3.67995 10.0138 3.67006 10.0138 3.66016C9.51236 3.66016 9.01422 3.65356 8.51278 3.66346C8.26207 3.66676 8.00805 3.68325 7.75733 3.72284C5.84395 4.02304 4.30665 5.60982 4.06253 7.5298C4.03284 7.77392 4.01305 8.02134 4.01635 8.26876C4.01965 9.0605 3.96686 9.85554 4.05594 10.6374C4.24397 12.333 5.16108 13.5371 6.70497 14.2596C6.83363 14.319 6.88312 14.3916 6.87982 14.5334C6.86662 14.9623 6.86662 15.3911 6.86662 15.8167C6.86662 16.0311 6.97219 16.206 7.16682 16.2917C7.36476 16.3775 7.5561 16.3115 7.71444 16.173C7.75073 16.14 7.78372 16.1037 7.81671 16.0674C8.20598 15.6353 8.59856 15.2064 8.98453 14.7709C9.06371 14.6819 9.14618 14.6423 9.26824 14.6423C9.9973 14.6489 10.7297 14.6489 11.4587 14.6423C11.7259 14.639 11.9964 14.6192 12.2604 14.5796C14.3684 14.2431 15.9816 12.3462 15.9849 10.2184C15.9849 9.55534 15.9914 8.88895 15.9816 8.22587C15.9783 7.94216 15.9585 7.65516 15.9156 7.37475C15.6253 5.47127 13.9362 3.86139 12.0162 3.70304C11.3565 3.64696 10.6835 3.68985 10.0138 3.68985Z" fill="#7EC5E6"/>
<path d="M7.27899 15.7705C7.27899 15.7078 7.27899 15.6452 7.27899 15.5792C7.29218 14.9326 7.30208 14.2827 7.31857 13.6361C7.32187 13.5338 7.30208 13.4679 7.19321 13.4184C5.79777 12.8015 5.04891 11.7293 4.98953 10.2052C4.95984 9.42338 4.96644 8.63494 5.00603 7.84979C5.0885 6.24981 6.42786 4.85107 8.01465 4.65973C8.18949 4.63994 8.36433 4.63004 8.53918 4.62674C9.53215 4.62344 10.5284 4.62344 11.5214 4.62674C13.4447 4.62674 15.0117 6.19703 15.015 8.12031C15.015 8.81308 15.015 9.50255 15.015 10.1953C15.0117 11.9405 13.669 13.458 11.9272 13.6361C11.3466 13.6955 10.7528 13.6625 10.1655 13.6724C9.92802 13.6757 9.6938 13.679 9.45628 13.6691C9.32432 13.6658 9.23195 13.7054 9.14288 13.8044C8.59526 14.4213 8.04434 15.0316 7.49012 15.6419C7.44063 15.6946 7.38455 15.7408 7.32847 15.7903C7.31857 15.787 7.29878 15.7771 7.27899 15.7705ZM11.3268 12.2407C12.102 12.211 12.6694 11.7293 12.7387 11.0168C12.7486 10.9046 12.7519 10.7891 12.6364 10.7265C12.234 10.512 11.8315 10.2976 11.4257 10.0931C11.2971 10.0271 11.1849 10.07 11.0925 10.1887C10.9804 10.3306 10.8616 10.4658 10.7396 10.6011C10.5482 10.8122 10.4822 10.8221 10.2282 10.6968C9.48267 10.324 8.91195 9.77636 8.50289 9.0506C8.42701 8.91534 8.43361 8.80318 8.53258 8.69102C8.64144 8.56566 8.75031 8.4436 8.85257 8.31494C8.93505 8.20938 8.96804 8.09391 8.91855 7.95866C8.7833 7.59248 8.65794 7.223 8.50289 6.86671C8.4567 6.75785 8.34454 6.64568 8.23567 6.5995C7.96846 6.48734 7.69795 6.52363 7.48022 6.71826C7.02497 7.12403 6.84023 7.63866 6.926 8.24566C6.99858 8.7471 7.25259 9.16936 7.51981 9.58833C8.27526 10.7858 9.28803 11.6634 10.6604 12.0856C10.8781 12.1516 11.1057 12.1912 11.3268 12.2407ZM12.389 9.11658C12.389 9.19905 12.3857 9.28153 12.389 9.364C12.3923 9.48936 12.4517 9.58173 12.5804 9.58833C12.7189 9.59492 12.7849 9.50915 12.7981 9.3739C12.8344 9.01761 12.7882 8.67123 12.6892 8.33474C12.3098 7.06465 11.1123 6.30919 9.80596 6.34548C9.64432 6.34878 9.54205 6.44445 9.55855 6.56981C9.57834 6.71826 9.6872 6.75785 9.82246 6.75785C9.94452 6.75785 10.0633 6.76445 10.1853 6.77104C11.4224 6.86012 12.3791 7.87288 12.389 9.11658ZM12.102 8.98792C12.0987 8.96153 12.0987 8.93184 12.0954 8.90545C11.9404 7.85309 11.1057 7.19661 10.2117 7.05145C10.1853 7.04815 10.1491 7.03496 10.1326 7.04815C10.0633 7.09764 9.95771 7.15042 9.94782 7.2131C9.93792 7.27908 10.0105 7.36815 10.0666 7.43083C10.093 7.46052 10.1589 7.45722 10.2084 7.46712C10.7989 7.59578 11.2641 7.89928 11.5313 8.4535C11.6171 8.63164 11.6501 8.83947 11.7028 9.03411C11.7358 9.15617 11.8051 9.23204 11.9371 9.21225C12.0591 9.19575 12.102 9.10668 12.102 8.98792ZM11.3202 8.95493C11.3169 8.47659 10.6406 7.79041 10.2117 7.79371C10.1458 7.79371 10.0501 7.85639 10.0237 7.91577C10.0006 7.97515 10.0336 8.07082 10.0699 8.1368C10.0963 8.17969 10.1688 8.19948 10.2249 8.21927C10.5317 8.31824 10.7396 8.52277 10.8583 8.81968C10.8847 8.88565 10.9012 8.96813 10.9474 9.01101C11.0068 9.0605 11.1024 9.10668 11.1717 9.09349C11.241 9.07699 11.2905 8.98462 11.3202 8.95493Z" fill="#7EC5E6"/>
</svg>
