<svg width="21" height="20" fill="none" xmlns="http://www.w3.org/2000/svg"><path fill-rule="evenodd" clip-rule="evenodd" d="M5.34 0A5.333 5.333 0 0 0 .005 5.333v9.334A5.333 5.333 0 0 0 5.339 20h9.334a5.333 5.333 0 0 0 5.333-5.333V5.333A5.333 5.333 0 0 0 14.673 0H5.339Zm8 7.333a.667.667 0 1 0 0-1.333.667.667 0 0 0 0 1.333Zm-10 0a4 4 0 0 1 4-4h5.333a4 4 0 0 1 4 4v5.334a4 4 0 0 1-4 4H7.339a4 4 0 0 1-4-4V7.333Zm4-2.666a2.667 2.667 0 0 0-2.667 2.666v5.334a2.667 2.667 0 0 0 2.666 2.666h5.334a2.667 2.667 0 0 0 2.666-2.666V7.333a2.667 2.667 0 0 0-2.666-2.666H7.339Zm4 5.333a1.333 1.333 0 1 1-2.667 0 1.333 1.333 0 0 1 2.666 0Zm1.333 0a2.667 2.667 0 1 1-5.334 0 2.667 2.667 0 0 1 5.334 0Z" fill="#7EC5E6"/></svg>