<svg width="20" height="20" fill="none" xmlns="http://www.w3.org/2000/svg"><path fill-rule="evenodd" clip-rule="evenodd" d="M0 4a4 4 0 0 1 4-4h12a4 4 0 0 1 4 4v12a4 4 0 0 1-4 4H4a4 4 0 0 1-4-4V4Zm4.355 1.645C4.551 5.552 4.77 5.5 5 5.5h10c.23 0 .45.052.645.145l.035-.03.071.086A1.5 1.5 0 0 1 16.5 7v6a1.5 1.5 0 0 1-1.5 1.5H5A1.5 1.5 0 0 1 3.5 13V7a1.5 1.5 0 0 1 .749-1.299l.071-.085.035.03ZM4.5 7.068V13a.5.5 0 0 0 .5.5h10a.5.5 0 0 0 .5-.5V7.068l-4.54 3.783a1.5 1.5 0 0 1-1.92 0L4.5 7.068ZM14.619 6.5l-4.299 3.582a.5.5 0 0 1-.64 0L5.38 6.5h9.238Z" fill="#7FC6E7"/></svg>