<svg width="20" height="20" fill="none" xmlns="http://www.w3.org/2000/svg"><path d="M9.998.002c2.553 0 5.108-.002 7.662 0 1.447.002 2.338.889 2.338 2.334.002 5.109.002 10.218 0 15.324 0 1.448-.889 2.338-2.334 2.338-5.109.002-10.218.002-15.324 0-1.45 0-2.336-.888-2.338-2.336-.003-5.108-.003-10.217 0-15.324C.002.886.888 0 2.333 0 4.89.002 7.444.002 9.998.002Zm-.114 14.073c1.059.777 2.16 1.593 3.27 2.397.579.42 1.115.205 1.262-.5.745-3.54 1.484-7.084 2.227-10.625.063-.302.059-.582-.195-.804-.265-.23-.55-.19-.856-.07a9856.86 9856.86 0 0 1-13.058 5.09c-.264.104-.481.23-.458.557.021.307.243.404.498.478.97.282 1.94.58 2.912.854.243.068.36.194.435.43.358 1.18.732 2.356 1.105 3.533.207.652.657.756 1.148.279.55-.528 1.108-1.05 1.71-1.619Z" fill="#7FC6E7"/><path d="M7.385 14.677c-.323-1.043-.646-2.083-.966-3.126-.085-.274.093-.405.293-.527a3592.09 3592.09 0 0 0 4.63-2.87c.776-.481 1.55-.969 2.336-1.441.11-.066.266-.055.399-.08-.066.122-.102.276-.199.364-1.926 1.716-3.864 3.417-5.784 5.139a1.246 1.246 0 0 0-.356.652c-.114.622-.165 1.255-.241 1.884a1.917 1.917 0 0 1-.112.005Z" fill="#7FC6E7"/></svg>