<svg width="21" height="20" fill="none" xmlns="http://www.w3.org/2000/svg"><path d="M10.027 19.996c-1.488 0-2.979.01-4.467-.003a22.826 22.826 0 0 1-2.071-.089A3.75 3.75 0 0 1 .14 16.813c-.102-.548-.129-1.112-.132-1.673-.01-3.41-.013-6.818 0-10.23.003-.666.013-1.339.185-1.995A3.812 3.812 0 0 1 3.508.078C3.96.03 4.418.005 4.874.005c3.401-.007 6.803-.007 10.204 0 .702 0 1.405.01 2.091.204a3.81 3.81 0 0 1 2.761 3.342c.043.525.07 1.053.07 1.577.006 3.19.01 6.38 0 9.57-.004.667-.01 1.343-.11 2.003a3.767 3.767 0 0 1-3.615 3.226c-2.019.06-4.041.05-6.063.07h-.185ZM10.014 3.69v-.03c-.502 0-1-.006-1.501.003a5.36 5.36 0 0 0-.756.06c-1.913.3-3.45 1.887-3.694 3.807-.03.244-.05.491-.047.739.004.791-.05 1.587.04 2.368.188 1.696 1.105 2.9 2.649 3.623.129.059.178.132.175.273-.013.43-.013.858-.013 1.284 0 .214.105.389.3.475.198.085.39.02.547-.119.037-.033.07-.07.103-.106.389-.432.782-.86 1.168-1.296a.346.346 0 0 1 .283-.129c.73.007 1.462.007 2.19 0 .268-.003.538-.023.802-.062 2.108-.337 3.722-2.234 3.725-4.362 0-.663.006-1.33-.003-1.992a6.12 6.12 0 0 0-.066-.851c-.29-1.904-1.98-3.514-3.9-3.672-.66-.056-1.332-.013-2.002-.013Z" fill="#7EC5E6"/><path d="M7.279 15.77v-.19c.013-.647.023-1.297.04-1.944.003-.102-.017-.168-.126-.218-1.395-.616-2.144-1.689-2.203-3.213-.03-.782-.024-1.57.016-2.355.082-1.6 1.422-2.999 3.009-3.19.174-.02.35-.03.524-.033.993-.004 1.99-.004 2.982 0 1.924 0 3.49 1.57 3.494 3.493v2.075c-.003 1.745-1.346 3.263-3.088 3.441-.58.06-1.174.027-1.761.036-.238.004-.472.007-.71-.003a.371.371 0 0 0-.313.135 218.44 218.44 0 0 1-1.653 1.838c-.05.053-.105.099-.162.148-.01-.003-.03-.013-.049-.02Zm4.048-3.53c.775-.029 1.342-.51 1.412-1.223.01-.112.013-.228-.103-.29a59.63 59.63 0 0 0-1.21-.634c-.129-.066-.241-.023-.334.096-.112.142-.23.277-.352.412-.192.211-.258.221-.512.096A3.979 3.979 0 0 1 8.503 9.05c-.076-.136-.07-.248.03-.36.108-.125.217-.247.32-.376.082-.106.115-.221.066-.356-.136-.367-.261-.736-.416-1.092a.554.554 0 0 0-.267-.268.686.686 0 0 0-.756.12c-.455.405-.64.92-.554 1.527.073.501.327.923.594 1.342.755 1.198 1.768 2.075 3.14 2.498.218.066.446.105.667.155Zm1.062-3.123c0 .082-.003.165 0 .247.003.125.063.218.191.224.139.007.205-.079.218-.214a2.69 2.69 0 0 0-.109-1.04c-.38-1.27-1.577-2.025-2.883-1.989-.162.004-.264.1-.247.225.02.148.128.188.263.188.123 0 .241.006.363.013a2.365 2.365 0 0 1 2.204 2.346Zm-.287-.13c-.003-.025-.003-.055-.007-.082-.155-1.052-.99-1.708-1.883-1.854-.027-.003-.063-.016-.08-.003-.069.05-.174.102-.184.165-.01.066.063.155.119.218.026.03.092.026.141.036.59.129 1.056.432 1.323.987.086.178.12.385.172.58.033.122.102.198.234.178.122-.016.165-.105.165-.224Zm-.782-.032c-.003-.478-.68-1.165-1.108-1.161a.248.248 0 0 0-.188.122c-.023.06.01.155.046.22.026.044.099.063.155.083a.981.981 0 0 1 .633.6c.027.067.043.15.09.192.059.05.154.096.224.082.069-.016.118-.108.148-.138Z" fill="#7EC5E6"/></svg>