<svg width="26" height="14" viewBox="0 0 26 14" fill="none" xmlns="http://www.w3.org/2000/svg">
<path fill-rule="evenodd" clip-rule="evenodd" d="M19.0764 0.146447C19.2717 -0.0488155 19.5883 -0.0488155 19.7836 0.146447L25.8536 6.21645C25.9473 6.31021 26 6.43739 26 6.57C26 6.70261 25.9473 6.82979 25.8536 6.92355L19.7836 12.9936C19.5883 13.1888 19.2717 13.1888 19.0764 12.9936C18.8812 12.7983 18.8812 12.4817 19.0764 12.2864L24.2929 7.07H0.5C0.223858 7.07 0 6.84614 0 6.57C0 6.29386 0.223858 6.07 0.5 6.07H24.2929L19.0764 0.853553C18.8812 0.658291 18.8812 0.341709 19.0764 0.146447Z" fill="#943F78"/>
</svg>
